<?xml version="1.0" standalone="no"?>
<!DOCTYPE svg PUBLIC "-//W3C//DTD SVG 20010904//EN"
 "http://www.w3.org/TR/2001/REC-SVG-20010904/DTD/svg10.dtd">
<svg version="1.0" xmlns="http://www.w3.org/2000/svg"
 width="169.000000pt" height="169.000000pt" viewBox="0 0 169.000000 169.000000"
 preserveAspectRatio="xMidYMid meet">
<metadata>
Created by potrace 1.11, written by Peter Selinger 2001-2013
</metadata>
<g transform="translate(0.000000,169.000000) scale(0.100000,-0.100000)"
fill="#000000" stroke="none">
<path d="M790 1424 c-81 -17 -111 -29 -175 -69 -98 -62 -186 -169 -221 -271
-18 -51 -19 -52 -73 -64 -78 -17 -128 -46 -192 -110 -60 -59 -103 -140 -113
-207 -7 -58 8 -54 39 8 55 107 176 195 305 220 36 6 70 16 77 21 6 5 24 42 39
81 15 40 40 91 56 115 37 54 126 125 198 160 49 23 67 26 165 25 101 0 115 -3
169 -29 32 -15 88 -53 125 -84 36 -30 74 -61 83 -68 14 -11 31 -7 112 28 53
23 128 47 167 55 88 16 103 35 65 84 -15 19 -117 7 -218 -27 -46 -16 -90 -26
-98 -23 -9 3 -40 25 -71 48 -132 101 -287 138 -439 107z"/>
<path d="M825 1292 c-45 -8 -116 -35 -130 -49 -11 -10 -12 -19 -5 -33 11 -21
20 -20 106 5 110 32 189 23 301 -33 57 -28 74 -25 51 10 -15 22 -118 80 -166
93 -28 8 -129 13 -157 7z"/>
<path d="M589 1054 c-11 -13 -14 -79 -16 -306 -2 -159 0 -300 3 -313 12 -47
79 -44 88 3 3 15 8 115 11 222 4 107 8 196 10 198 1 2 57 -68 123 -155 174
-227 214 -276 245 -293 26 -14 29 -14 46 7 17 20 18 47 19 300 0 153 -4 292
-9 310 -16 55 -75 55 -84 0 -4 -30 -19 -369 -17 -411 1 -26 1 -26 -153 179
-212 281 -232 300 -266 259z"/>
<path d="M1230 855 c-18 -22 3 -64 75 -149 l58 -68 -24 -31 c-110 -147 -129
-199 -78 -205 26 -3 57 24 137 117 l30 35 75 -77 c41 -42 82 -77 90 -77 16 0
47 26 47 39 0 12 -48 80 -98 138 l-44 53 34 43 c50 60 98 138 98 158 0 24 -26
42 -52 35 -13 -3 -49 -39 -81 -81 -32 -41 -62 -75 -66 -75 -5 0 -16 10 -24 23
-47 66 -125 137 -153 137 -6 0 -17 -7 -24 -15z"/>
<path d="M86 737 c-52 -89 -67 -209 -33 -270 44 -79 135 -157 217 -186 49 -18
1347 -29 1379 -12 24 13 28 52 8 70 -10 7 -211 12 -663 15 -357 3 -662 8 -679
11 -95 20 -188 133 -209 255 -2 14 2 55 9 93 7 37 9 67 4 67 -4 0 -19 -19 -33
-43z"/>
</g>
</svg>
